<svg xmlns="http://www.w3.org/2000/svg" version="1.1" xmlns:xlink="http://www.w3.org/1999/xlink" xmlns:svgjs="http://svgjs.dev/svgjs" width="1000" height="1000" viewBox="0 0 1000 1000"><g transform="matrix(1,0,0,1,-0.14221556886212738,-0.14221556886229791)"><svg viewBox="0 0 334 334" data-background-color="#ece9e6" preserveAspectRatio="xMidYMid meet" height="1000" width="1000" xmlns="http://www.w3.org/2000/svg" xmlns:xlink="http://www.w3.org/1999/xlink"><g id="tight-bounds" transform="matrix(1,0,0,1,0.04749999999998522,0.04750000000001364)"><svg viewBox="0 0 333.90454557049503 333.90454557049503" height="333.90454557049503" width="333.90454557049503"><g><svg></svg></g><g><svg viewBox="0 0 333.90454557049503 333.90454557049503" height="333.90454557049503" width="333.90454557049503"><g><path d="M0 166.952c0-92.205 74.747-166.952 166.952-166.952 92.205 0 166.952 74.747 166.953 166.952 0 92.205-74.747 166.952-166.953 166.953-92.205 0-166.952-74.747-166.952-166.953zM166.952 328.025c88.958 0 161.073-72.115 161.073-161.073 0-88.958-72.115-161.073-161.073-161.073-88.958 0-161.073 72.115-161.073 161.073 0 88.958 72.115 161.073 161.073 161.073z" data-fill-palette-color="tertiary" fill="#f8fafc" stroke="transparent"></path><ellipse rx="160.27418187383762" ry="160.27418187383762" cx="166.95227278524752" cy="166.95227278524752" fill="#f8fafc" stroke="transparent" stroke-width="0" fill-opacity="1" data-fill-palette-color="tertiary"></ellipse></g><g transform="matrix(1,0,0,1,89.8198265864271,71.17305217166896)"><svg viewBox="0 0 154.26489239764084 191.55844122715712" height="191.55844122715712" width="154.26489239764084"><g><svg viewBox="0 0 154.26489239764084 191.55844122715712" height="191.55844122715712" width="154.26489239764084"><g><svg viewBox="0 0 213.1584412271571 264.68950972093796" height="191.55844122715712" width="154.26489239764084"><g transform="matrix(1,0,0,1,0,134.92587200195584)"><svg viewBox="0 0 213.1584412271571 129.76363771898215" height="129.76363771898215" width="213.1584412271571"><g><svg viewBox="0 0 213.1584412271571 129.76363771898215" height="129.76363771898215" width="213.1584412271571"><g><svg viewBox="0 0 213.1584412271571 90.0842937749108" height="90.0842937749108" width="213.1584412271571"><g transform="matrix(1,0,0,1,0,0)"><svg width="213.1584412271571" viewBox="2 -35.55 118.3 50" height="90.0842937749108" data-palette-color="#58aefe"><path d="M2-0.29L2-0.29 2.15-35.55Q12.99-35.45 18.9-30 24.8-24.56 24.8-14.06L24.8-14.06Q24.8-10.69 23.05-7.91 21.29-5.13 18.53-3.47 15.77-1.81 12.57-0.9 9.38 0 6.25 0L6.25 0Q4.3 0 2-0.29ZM5.66-3.27L5.66-3.27 6.49-3.27Q9.28-3.27 11.87-3.93 14.45-4.59 16.65-5.91 18.85-7.23 20.17-9.55 21.48-11.87 21.48-14.89L21.48-14.89Q21.48-18.99 19.02-23.22 16.55-27.44 13.06-30.05 9.57-32.67 6.59-32.67L6.59-32.67Q5.96-32.67 5.37-32.52L5.37-32.52Q5.37-29.59 5.66-3.27ZM29.83-25.1L29.83-25.1 32.08-24.61Q32.47-20.61 32.76-12.04 33.05-3.47 33.15-1.42L33.15-1.42Q32.71 0.1 31.44 0.1L31.44 0.1Q30.56 0.1 29.76-0.61 28.95-1.32 28.76-2.34L28.76-2.34Q28.85-4.35 29.15-12.77 29.44-21.19 29.83-25.1ZM30.52-33.84L30.52-33.84Q31.83-33.84 32.71-32.69 33.59-31.54 33.59-30.08L33.59-30.08Q33.59-29 33.08-28.34 32.57-27.69 31.69-27.69L31.69-27.69Q30.32-27.69 29.54-28.81 28.76-29.93 28.76-31.45L28.76-31.45Q28.76-32.52 29.22-33.18 29.68-33.84 30.52-33.84ZM39.35-21.09L39.35-21.09 38.37-23.58Q39.64-24.85 41.6-25.61 43.55-26.37 45.45-26.37L45.45-26.37Q53.71-26.37 53.71-12.11L53.71-12.11Q53.71-10.16 53.49-6.35 53.27-2.54 53.27-0.63L53.27-0.63Q52.88 0.88 51.75 0.88L51.75 0.88Q50.87 0.88 50.14 0 49.41-0.88 49.41-1.95L49.41-1.95Q49.41-2.29 49.46-2.44L49.46-2.44Q46.43 0.49 43.01 0.49L43.01 0.49Q40.42 0.49 38.5-1.39 36.57-3.27 36.57-5.96L36.57-5.96Q36.57-10.5 40.11-14.16 43.65-17.82 48.14-17.82L48.14-17.82Q48.33-17.82 48.53-17.8 48.73-17.77 48.99-17.72 49.26-17.68 49.41-17.68L49.41-17.68Q49.02-23.39 44.87-23.39L44.87-23.39Q42.43-23.39 39.35-21.09ZM49.56-5.81L49.56-5.81Q49.65-9.23 49.65-10.99L49.65-10.99Q49.65-12.45 49.56-15.09L49.56-15.09 49.16-15.09Q45.7-15.04 42.84-12.5 39.99-9.96 39.99-6.35L39.99-6.35Q39.99-4.79 40.94-3.86 41.89-2.93 43.26-2.93L43.26-2.93Q45.41-2.93 49.56-5.81ZM73.77-18.6L73.77-18.6 71.62-18.75Q70.6-21.48 68.16-21.48L68.16-21.48Q67.08-21.48 65.89-21 64.69-20.51 63.91-20 63.13-19.48 61.86-18.51L61.86-18.51Q61.86-17.82 61.83-14.06 61.81-10.3 61.88-5.71 61.96-1.12 62.05-0.78L62.05-0.78Q61.61 0.68 60.34 0.68L60.34 0.68Q59.47 0.68 58.66-0.02 57.85-0.73 57.66-1.76L57.66-1.76Q58.59-17.43 59.32-25.44L59.32-25.44 61.52-24.95 61.66-21.68Q65.08-24.51 67.52-24.51L67.52-24.51Q70.21-24.51 72.04-23.29 73.87-22.07 73.87-19.73L73.87-19.73Q73.87-18.99 73.77-18.6ZM76.89-25.1L76.89-25.1 79.14-24.61Q79.53-20.61 79.82-12.04 80.12-3.47 80.21-1.42L80.21-1.42Q79.78 0.1 78.51 0.1L78.51 0.1Q77.63 0.1 76.82-0.61 76.02-1.32 75.82-2.34L75.82-2.34Q75.92-4.35 76.21-12.77 76.5-21.19 76.89-25.1ZM77.58-33.84L77.58-33.84Q78.9-33.84 79.78-32.69 80.65-31.54 80.65-30.08L80.65-30.08Q80.65-29 80.14-28.34 79.63-27.69 78.75-27.69L78.75-27.69Q77.38-27.69 76.6-28.81 75.82-29.93 75.82-31.45L75.82-31.45Q75.82-32.52 76.28-33.18 76.75-33.84 77.58-33.84ZM97.25-21.34L97.25-21.34 97.69-19.09Q96.67-18.95 94.27-18.75 91.88-18.55 90.71-18.36L90.71-18.36Q90.71-5.81 91-0.15L91-0.15Q90.42 1.76 89.05 1.76L89.05 1.76Q88.42 1.76 87.85 1.22 87.29 0.68 87.1-0.15L87.1-0.15Q87.1-1.61 87.27-8.11 87.44-14.6 87.44-18.16L87.44-18.16 83.73-18.31Q83.63-19.29 83.63-21.58L83.63-21.58Q84.12-21.48 85.49-21.34 86.85-21.19 87.34-21.14L87.34-21.14Q87.49-22.71 87.49-25.59L87.49-25.59Q87.49-31.15 88.42-33.2 89.34-35.25 92.86-35.25L92.86-35.25Q96.62-35.25 99.01-33.84L99.01-33.84 98.72-32.08Q98.08-32.08 96.74-32.2 95.4-32.32 94.71-32.32L94.71-32.32Q92.71-32.32 91.69-31.45 90.66-30.57 90.66-28.08L90.66-28.08Q90.66-27.29 90.69-26.39 90.71-25.49 90.71-25.24L90.71-25.24Q90.71-23.44 90.66-21.29L90.66-21.29Q91.44-21.29 92.83-21.24 94.23-21.19 94.86-21.19L94.86-21.19Q96.08-21.19 97.25-21.34ZM104.48 14.45L104.48 14.45 101.45 12.74Q103.45 9.28 108.53-0.44L108.53-0.44Q104.57-3.96 102.48-11.08 100.38-18.21 99.94-25.34L99.94-25.34 102.77-25.2Q103.01-24.02 103.82-19.85 104.62-15.67 105.11-13.67 105.6-11.67 106.85-8.67 108.09-5.66 109.7-3.61L109.7-3.61Q116.49-16.65 116.49-25L116.49-25 116.49-25.54Q119.03-25.15 120.3-24.61L120.3-24.61Q119.52-19.48 117.86-14.16 116.2-8.84 113.71-3.44 111.22 1.95 109.29 5.62 107.36 9.28 104.48 14.45Z" opacity="1" transform="matrix(1,0,0,1,0,0)" fill="#58aefe" class="undefined-text-0" data-fill-palette-color="quaternary" id="text-0"></path></svg></g></svg></g><g transform="matrix(1,0,0,1,0,111.35103351211664)"><svg viewBox="0 0 213.1584412271571 18.412604206865502" height="18.412604206865502" width="213.1584412271571"><g transform="matrix(1,0,0,1,0,0)"><svg width="213.1584412271571" viewBox="1.75 -37.5 573 49.5" height="18.412604206865502" data-palette-color="#58aefe"><path d="M19.55 0.25L17.8 0.25 5.2-30.45 1.75-32.2 1.75-33 14.25-33 14.25-32.2 9.95-30.35 9.95-30.1 19.3-7.2 19.55-7.2 28.85-30.3 28.85-30.5 24.75-32.2 24.75-33 35.25-33 35.25-32.2 32.4-30.7 19.55 0.25ZM44.7-29.05L44.7-29.05Q43.4-29.05 42.55-29.93 41.7-30.8 41.7-32.05L41.7-32.05Q41.7-33.35 42.55-34.2 43.4-35.05 44.7-35.05L44.7-35.05Q46-35.05 46.85-34.2 47.7-33.35 47.7-32.05L47.7-32.05Q47.7-30.8 46.85-29.93 46-29.05 44.7-29.05ZM50 0L39.7 0 39.7-0.8 42.85-2.4 42.85-17.3 39.85-19.9 39.85-20.25 46.55-23 46.85-23 46.85-2.4 50-0.8 50 0ZM58.1 0.5L57.8 0.5 57.8-31.8 54.8-34.4 54.8-34.75 61.5-37.5 61.8-37.5 61.8-19.9 62-19.9Q63.9-21.5 65.67-22.25 67.45-23 69.5-23L69.5-23Q72.05-23 74-21.7 75.95-20.4 77.07-18.03 78.2-15.65 78.2-12.35L78.2-12.35Q78.2-8.25 76.65-5.38 75.09-2.5 72.45-1 69.8 0.5 66.5 0.5L66.5 0.5Q64.45 0.5 62.67 0.13 60.9-0.25 59.35-0.8L59.35-0.8 58.1 0.5ZM66.75-19.55L66.75-19.55Q65.55-19.55 64.27-19.18 63-18.8 61.8-18.05L61.8-18.05 61.8-3.95Q63.2-2.85 64.62-2.38 66.05-1.9 67.8-1.9L67.8-1.9Q69.55-1.9 71-2.83 72.45-3.75 73.32-5.8 74.2-7.85 74.2-11.2L74.2-11.2Q74.2-15.55 72.02-17.55 69.84-19.55 66.75-19.55ZM93.59 0.5L93.59 0.5Q88.74 0.5 85.94-2.45 83.14-5.4 83.14-10.25L83.14-10.25Q83.14-14 84.62-16.88 86.09-19.75 88.52-21.38 90.94-23 93.79-23L93.79-23Q97.74-23 100.02-20.25 102.29-17.5 102.29-12.35L102.29-12.35 102.04-12.1 87.09-12.1Q87.14-9.8 87.99-7.78 88.84-5.75 90.72-4.5 92.59-3.25 95.74-3.25L95.74-3.25Q98.49-3.25 102.19-5.25L102.19-5.25 102.34-5.25 102.34-4.75Q101.19-2.6 98.92-1.05 96.64 0.5 93.59 0.5ZM92.99-20.8L92.99-20.8Q90.59-20.8 89.07-19.13 87.54-17.45 87.19-14.4L87.19-14.4 98.49-14.4Q97.94-17.8 96.57-19.3 95.19-20.8 92.99-20.8ZM132.79 0.25L131.04 0.25 121.84-30.4 118.09-32.2 118.09-33 130.79-33 130.79-32.2 126.54-30.35 132.79-8.7 133.04-8.7 141.69-33.25 143.54-33.25 152.39-8.7 152.69-8.7 158.84-30.3 154.59-32.2 154.59-33 165.64-33 165.64-32.2 162.29-30.35 152.99 0.25 151.24 0.25 142.14-24.25 141.89-24.25 132.79 0.25ZM174.09-29.05L174.09-29.05Q172.79-29.05 171.94-29.93 171.09-30.8 171.09-32.05L171.09-32.05Q171.09-33.35 171.94-34.2 172.79-35.05 174.09-35.05L174.09-35.05Q175.39-35.05 176.24-34.2 177.09-33.35 177.09-32.05L177.09-32.05Q177.09-30.8 176.24-29.93 175.39-29.05 174.09-29.05ZM179.39 0L169.09 0 169.09-0.8 172.24-2.4 172.24-17.3 169.24-19.9 169.24-20.25 175.94-23 176.24-23 176.24-2.4 179.39-0.8 179.39 0ZM192.43 0.5L192.43 0.5Q190.23 0.5 188.63-0.8 187.03-2.1 187.03-4.45L187.03-4.45 187.03-20.15 182.93-20.15 182.93-20.45 187.18-22.5 190.73-28 191.03-28 191.03-22.5 197.63-22.5 197.63-20.15 191.03-20.15 191.03-5.3Q191.03-4 192.18-3.4 193.33-2.8 194.88-2.8L194.88-2.8Q195.83-2.8 196.66-2.9 197.48-3 198.08-3.15L198.08-3.15 198.23-3.15 198.23-2.65Q197.73-1.5 196.26-0.5 194.78 0.5 192.43 0.5ZM212.83 0L202.13 0 202.13-0.8 205.28-2.4 205.28-31.8 202.28-34.4 202.28-34.75 208.98-37.5 209.28-37.5 209.28-19.3 209.48-19.3Q211.38-21.2 213.16-22.1 214.93-23 217.08-23L217.08-23Q220.03-23 221.91-21.53 223.78-20.05 223.78-17.15L223.78-17.15 223.78-2.4 226.93-0.8 226.93 0 216.23 0 216.23-0.8 219.78-2.25 219.78-14.8Q219.78-17 218.41-18.15 217.03-19.3 214.83-19.3L214.83-19.3Q213.48-19.3 211.86-18.85 210.23-18.4 209.28-17.55L209.28-17.55 209.28-2.25 212.83-0.8 212.83 0ZM266.23 0L252.73 0 252.73-0.8 257.23-2.8 257.23-15.4 246.13-30.55 243.08-32.2 243.08-33 255.18-33 255.18-32.2 251.53-30.45 251.53-30.25 260.48-18.1 268.53-30.2 268.53-30.4 264.88-32.2 264.88-33 275.48-33 275.48-32.2 272.28-30.55 261.73-15.45 261.73-2.8 266.23-0.8 266.23 0ZM290.72 0.5L290.72 0.5Q287.42 0.5 284.95-1.05 282.47-2.6 281.1-5.25 279.72-7.9 279.72-11.25L279.72-11.25Q279.72-14.6 281.1-17.25 282.47-19.9 284.95-21.45 287.42-23 290.72-23L290.72-23Q294.02-23 296.5-21.45 298.97-19.9 300.35-17.25 301.72-14.6 301.72-11.25L301.72-11.25Q301.72-7.9 300.35-5.25 298.97-2.6 296.5-1.05 294.02 0.5 290.72 0.5ZM291.42-1.65L291.42-1.65Q293.42-1.65 294.72-2.9 296.02-4.15 296.62-6.13 297.22-8.1 297.22-10.25L297.22-10.25Q297.22-12.9 296.5-15.35 295.77-17.8 294.2-19.35 292.62-20.9 290.12-20.9L290.12-20.9Q288.07-20.9 286.77-19.65 285.47-18.4 284.85-16.45 284.22-14.5 284.22-12.3L284.22-12.3Q284.22-9.65 284.97-7.2 285.72-4.75 287.32-3.2 288.92-1.65 291.42-1.65ZM315.47 0.5L315.47 0.5Q312.52 0.5 310.65-0.98 308.77-2.45 308.77-5.35L308.77-5.35 308.77-20.15 305.62-21.7 305.62-22.5 312.77-22.5 312.77-7.7Q312.77-5.5 314.15-4.35 315.52-3.2 317.72-3.2L317.72-3.2Q319.07-3.2 320.7-3.65 322.32-4.1 323.27-4.95L323.27-4.95 323.27-20.15 319.72-21.7 319.72-22.5 327.27-22.5 327.27-2.25 330.82-0.8 330.82 0 323.27 0 323.27-3.15 323.02-3.15Q321.12-1.25 319.35-0.38 317.57 0.5 315.47 0.5ZM345.57 0L334.87 0 334.87-0.8 338.02-2.4 338.02-17.3 335.02-19.9 335.02-20.25 341.22-23 341.52-23 341.97-18.75 342.17-18.75Q343.32-20.6 344.29-21.53 345.27-22.45 346.12-22.73 346.97-23 347.82-23L347.82-23Q348.22-23 348.74-22.85 349.27-22.7 349.62-22.55L349.62-22.55Q350.17-22.3 350.64-21.95 351.12-21.6 351.12-21.15L351.12-21.15Q351.12-20.7 350.92-20.25L350.92-20.25 349.92-17.8 349.57-17.8 347.67-18.55Q347.12-18.8 346.59-18.85 346.07-18.9 345.57-18.9L345.57-18.9Q343.47-18.9 342.02-16.75L342.02-16.75 342.02-2.4 345.57-0.8 345.57 0ZM388.71 0L374.21 0 374.21-0.8 379.21-2.8 379.21-30.25 371.06-30.25 367.66-22.9 366.86-22.9 366.86-33 396.06-33 396.06-22.9 395.26-22.9 391.86-30.25 383.71-30.25 383.71-2.8 388.71-0.8 388.71 0ZM411.41 0L400.71 0 400.71-0.8 403.86-2.4 403.86-31.8 400.86-34.4 400.86-34.75 407.56-37.5 407.86-37.5 407.86-19.3 408.06-19.3Q409.96-21.2 411.74-22.1 413.51-23 415.66-23L415.66-23Q418.61-23 420.49-21.53 422.36-20.05 422.36-17.15L422.36-17.15 422.36-2.4 425.51-0.8 425.51 0 414.81 0 414.81-0.8 418.36-2.25 418.36-14.8Q418.36-17 416.99-18.15 415.61-19.3 413.41-19.3L413.41-19.3Q412.06-19.3 410.44-18.85 408.81-18.4 407.86-17.55L407.86-17.55 407.86-2.25 411.41-0.8 411.41 0ZM440.91 0.5L440.91 0.5Q437.61 0.5 435.13-1.05 432.66-2.6 431.28-5.25 429.91-7.9 429.91-11.25L429.91-11.25Q429.91-14.6 431.28-17.25 432.66-19.9 435.13-21.45 437.61-23 440.91-23L440.91-23Q444.21-23 446.68-21.45 449.16-19.9 450.53-17.25 451.91-14.6 451.91-11.25L451.91-11.25Q451.91-7.9 450.53-5.25 449.16-2.6 446.68-1.05 444.21 0.5 440.91 0.5ZM441.61-1.65L441.61-1.65Q443.61-1.65 444.91-2.9 446.21-4.15 446.81-6.13 447.41-8.1 447.41-10.25L447.41-10.25Q447.41-12.9 446.68-15.35 445.96-17.8 444.38-19.35 442.81-20.9 440.31-20.9L440.31-20.9Q438.26-20.9 436.96-19.65 435.66-18.4 435.03-16.45 434.41-14.5 434.41-12.3L434.41-12.3Q434.41-9.65 435.16-7.2 435.91-4.75 437.51-3.2 439.11-1.65 441.61-1.65ZM465.66 0.5L465.66 0.5Q462.71 0.5 460.83-0.98 458.96-2.45 458.96-5.35L458.96-5.35 458.96-20.15 455.81-21.7 455.81-22.5 462.96-22.5 462.96-7.7Q462.96-5.5 464.33-4.35 465.71-3.2 467.91-3.2L467.91-3.2Q469.26-3.2 470.88-3.65 472.51-4.1 473.46-4.95L473.46-4.95 473.46-20.15 469.91-21.7 469.91-22.5 477.46-22.5 477.46-2.25 481.01-0.8 481.01 0 473.46 0 473.46-3.15 473.21-3.15Q471.31-1.25 469.53-0.38 467.76 0.5 465.66 0.5ZM495.35-7.1L495.35-7.1Q493.15-7.1 491.3-7.9L491.3-7.9Q490.3-7.5 489.88-6.85 489.45-6.2 489.45-5.45L489.45-5.45Q489.45-2.95 493-2.95L493-2.95 499-2.95Q502.65-2.95 504.38-1.35 506.1 0.25 506.1 3.4L506.1 3.4Q506.1 5.55 504.68 7.53 503.25 9.5 500.63 10.75 498 12 494.4 12L494.4 12Q489.65 12 487.58 10.28 485.5 8.55 485.5 6.05L485.5 6.05Q485.5 4.2 486.4 2.85L486.4 2.85 489.85 0.55 489.85 0.35Q487.95-0.05 486.95-1.13 485.95-2.2 485.95-3.75L485.95-3.75Q485.95-5.65 487.25-6.95L487.25-6.95 489.95-8.35 489.95-8.65Q488.35-9.7 487.4-11.35 486.45-13 486.45-15.05L486.45-15.05Q486.45-17.3 487.6-19.1 488.75-20.9 490.78-21.95 492.8-23 495.35-23L495.35-23Q496.4-23 497.63-22.75 498.85-22.5 499.75-22.1L499.75-22.1 507.25-22.5 507.25-19.8 502.6-20.1 502.4-19.9Q503.2-19 503.73-17.7 504.25-16.4 504.25-15.05L504.25-15.05Q504.25-12.8 503.1-11 501.95-9.2 499.93-8.15 497.9-7.1 495.35-7.1ZM495.85-9.15L495.85-9.15Q497.85-9.15 499-10.88 500.15-12.6 500.15-14.9L500.15-14.9Q500.15-17.65 498.65-19.33 497.15-21 495-21L495-21Q492.85-21 491.7-19.28 490.55-17.55 490.55-15.2L490.55-15.2Q490.55-12.6 492.05-10.88 493.55-9.15 495.85-9.15ZM489.05 5.5L489.05 5.5Q489.05 7.7 490.78 9.15 492.5 10.6 495 10.6L495 10.6Q497.25 10.6 498.93 9.73 500.6 8.85 501.53 7.43 502.45 6 502.45 4.4L502.45 4.4Q502.45 2.2 501.28 1.35 500.1 0.5 497.05 0.5L497.05 0.5 491.7 0.5Q491.55 0.5 491.45 0.5L491.45 0.5Q490.1 1.3 489.58 2.53 489.05 3.75 489.05 5.5ZM522.85 0L512.15 0 512.15-0.8 515.3-2.4 515.3-31.8 512.3-34.4 512.3-34.75 519-37.5 519.3-37.5 519.3-19.3 519.5-19.3Q521.4-21.2 523.18-22.1 524.95-23 527.1-23L527.1-23Q530.05-23 531.93-21.53 533.8-20.05 533.8-17.15L533.8-17.15 533.8-2.4 536.95-0.8 536.95 0 526.25 0 526.25-0.8 529.8-2.25 529.8-14.8Q529.8-17 528.43-18.15 527.05-19.3 524.85-19.3L524.85-19.3Q523.5-19.3 521.88-18.85 520.25-18.4 519.3-17.55L519.3-17.55 519.3-2.25 522.85-0.8 522.85 0ZM549.25 0.5L549.25 0.5Q547.05 0.5 545.45-0.8 543.85-2.1 543.85-4.45L543.85-4.45 543.85-20.15 539.75-20.15 539.75-20.45 544-22.5 547.55-28 547.85-28 547.85-22.5 554.45-22.5 554.45-20.15 547.85-20.15 547.85-5.3Q547.85-4 549-3.4 550.15-2.8 551.7-2.8L551.7-2.8Q552.65-2.8 553.47-2.9 554.3-3 554.9-3.15L554.9-3.15 555.05-3.15 555.05-2.65Q554.55-1.5 553.07-0.5 551.6 0.5 549.25 0.5ZM567.2 0.5L567.2 0.5Q564.85 0.5 563.15 0.1 561.45-0.3 559.7-1.2L559.7-1.2 559.7-6.8 560.4-6.8 562-4.05Q563.55-1.3 567.05-1.3L567.05-1.3Q569.05-1.3 570.17-2.25 571.3-3.2 571.3-4.85L571.3-4.85Q571.3-6.3 570.6-7.1 569.9-7.9 568.62-8.53 567.35-9.15 565.6-9.95L565.6-9.95Q563.05-11.1 561.67-12.48 560.3-13.85 560.3-16.35L560.3-16.35Q560.3-18.2 561.35-19.7 562.4-21.2 564.02-22.1 565.65-23 567.4-23L567.4-23Q569.25-23 570.8-22.55 572.35-22.1 573.95-21.3L573.95-21.3 573.95-15.85 573.25-15.85 571.6-18.5Q570.75-19.85 569.75-20.45 568.75-21.05 567.6-21.05L567.6-21.05Q565.9-21.05 564.87-20.2 563.85-19.35 563.85-17.85L563.85-17.85Q563.85-16.15 565.07-15.28 566.3-14.4 568.65-13.3L568.65-13.3Q570.05-12.6 571.47-11.9 572.9-11.2 573.82-9.93 574.75-8.65 574.75-6.3L574.75-6.3Q574.75-4.1 573.55-2.58 572.35-1.05 570.6-0.28 568.85 0.5 567.2 0.5Z" opacity="1" transform="matrix(1,0,0,1,0,0)" fill="#58aefe" class="undefined-text-1" data-fill-palette-color="quaternary" id="text-1"></path></svg></g></svg></g></svg></g></svg></g><g transform="matrix(1,0,0,1,40.713262274387006,0)"><svg viewBox="0 0 131.7319166783831 113.65913226474999" height="113.65913226474999" width="131.7319166783831"><g><svg xmlns="http://www.w3.org/2000/svg" xmlns:xlink="http://www.w3.org/1999/xlink" version="1.1" x="0" y="0" viewBox="0.0004999999999918264 0.0005000000000068283 100.0001257156558 86.28074199327634" enable-background="new 0 0 100 100" xml:space="preserve" width="131.7319166783831" height="113.65913226474999" class="icon-icon-0" data-fill-palette-color="quaternary" id="icon-0"><path fill-rule="evenodd" clip-rule="evenodd" d="M99.951 59.13c-0.046-2.939-1.809-7.692-4.938-8.193v-8.57c0-0.302-0.248-0.549-0.55-0.549h-1.421c-1.706-7.757-4.797-14.596-8.686-20.325 0.001-0.129 0.003-0.259 0.004-0.389 0.021-1.062-0.78-3.013-1.777-4.227-17.953-22.502-47.212-22.502-65.165 0-0.998 1.213-1.798 3.165-1.778 4.227 0.001 0.13 0.002 0.26 0.004 0.389-3.889 5.729-6.979 12.568-8.686 20.325h-1.42c-0.302 0-0.55 0.247-0.55 0.549v8.57c-3.131 0.499-4.894 5.254-4.938 8.193-0.066 5.479-0.066 10.961 0 16.441 0.045 2.959 1.832 6.121 5.005 6.562 1.675 0.22 4.346-0.455 6.506-1.628 0.013 2.392 0.029 3.901 0.049 3.914 0.006 0.506 0.459 1.106 1.021 1.284 2.715 0.872 5.547 0.752 8.262-0.321 0.562-0.222 1.021-1.341 1.021-1.341V46.599c-0.005-0.495-0.458-1.119-1.021-1.341-2.714-1.072-5.548-1.192-8.262-0.321-0.562 0.179-1.015 0.779-1.021 1.285-0.023 0.014-0.041 1.92-0.054 4.866-0.542-0.242-1.19-0.378-1.898-0.436v-7.884c1.499-7.583 4.433-14.233 8.198-19.759 0.118-0.038 0.234-0.075 0.352-0.112 0.958-0.312 2.391-1.076 3.248-2.103 16.622-20.544 40.468-20.543 57.089 0 0.856 1.027 2.288 1.791 3.248 2.103 0.116 0.036 0.233 0.073 0.351 0.111 3.764 5.525 6.698 12.175 8.198 19.757v7.885c-0.709 0.058-1.357 0.193-1.898 0.436-0.013-2.945-0.03-4.853-0.054-4.866-0.005-0.506-0.458-1.106-1.021-1.285-2.714-0.871-5.549-0.751-8.262 0.321-0.562 0.222-1.02 1.341-1.02 1.341v37.442c0 0 0.458 1.119 1.02 1.341 2.714 1.073 5.547 1.193 8.262 0.321 0.562-0.178 1.016-0.778 1.021-1.284 0.021-0.013 0.037-1.521 0.049-3.913 2.161 1.172 4.831 1.847 6.506 1.627 3.174-0.44 4.961-3.603 5.007-6.562C100.017 70.091 100.017 64.609 99.951 59.13z" fill="#58aefe" data-fill-palette-color="quaternary"></path></svg></g></svg></g><g></g></svg></g></svg></g></svg></g></svg></g><defs></defs></svg><rect width="333.90454557049503" height="333.90454557049503" fill="none" stroke="none" visibility="hidden"></rect></g></svg></g></svg>